<mxfile host="Electron" agent="Mozilla/5.0 (Windows NT 10.0; Win64; x64) AppleWebKit/537.36 (KHTML, like Gecko) draw.io/26.2.2 Chrome/134.0.6998.178 Electron/35.1.2 Safari/537.36" version="26.2.2">
  <diagram name="Page-1" id="iixX0eeAZ0HXciVgcD59">
    <mxGraphModel dx="1160" dy="696" grid="1" gridSize="10" guides="1" tooltips="1" connect="1" arrows="1" fold="1" page="1" pageScale="1" pageWidth="1920" pageHeight="1200" math="0" shadow="1" adaptiveColors="auto">
      <root>
        <mxCell id="0" />
        <mxCell id="1" parent="0" />
        <mxCell id="JZYg6jR8ObkeTNI4lyvI-3" value="&lt;font style=&quot;font-size: 24px;&quot;&gt;High level Architecture&lt;/font&gt;" style="text;html=1;align=center;verticalAlign=middle;resizable=0;points=[];autosize=1;strokeColor=none;fillColor=none;fontStyle=0;textShadow=0;labelBorderColor=none;" vertex="1" parent="1">
          <mxGeometry x="10" y="10" width="260" height="40" as="geometry" />
        </mxCell>
        <mxCell id="JZYg6jR8ObkeTNI4lyvI-4" value="" style="rounded=0;whiteSpace=wrap;html=1;dashed=1;dashPattern=1 4;" vertex="1" parent="1">
          <mxGeometry x="16.81" y="100" width="120" height="580" as="geometry" />
        </mxCell>
        <mxCell id="JZYg6jR8ObkeTNI4lyvI-5" value="&lt;font&gt;source&lt;/font&gt;" style="rounded=1;whiteSpace=wrap;html=1;strokeColor=none;fontSize=18;fontStyle=1" vertex="1" parent="1">
          <mxGeometry x="10" y="90" width="120" height="60" as="geometry" />
        </mxCell>
        <mxCell id="JZYg6jR8ObkeTNI4lyvI-6" value="" style="rounded=0;whiteSpace=wrap;html=1;dashed=1;dashPattern=1 4;glass=0;shadow=0;" vertex="1" parent="1">
          <mxGeometry x="210" y="90" width="490" height="590" as="geometry" />
        </mxCell>
        <mxCell id="JZYg6jR8ObkeTNI4lyvI-7" value="" style="rounded=0;whiteSpace=wrap;html=1;dashed=1;dashPattern=1 4;" vertex="1" parent="1">
          <mxGeometry x="810" y="80" width="120" height="600" as="geometry" />
        </mxCell>
        <mxCell id="JZYg6jR8ObkeTNI4lyvI-8" value="&lt;font style=&quot;font-size: 16px;&quot;&gt;Data Warehouse&lt;/font&gt;" style="rounded=1;whiteSpace=wrap;html=1;strokeColor=none;fontStyle=1" vertex="1" parent="1">
          <mxGeometry x="310" y="80" width="170" height="60" as="geometry" />
        </mxCell>
        <mxCell id="JZYg6jR8ObkeTNI4lyvI-9" value="&lt;font style=&quot;font-size: 18px;&quot;&gt;Consume&lt;/font&gt;" style="rounded=1;whiteSpace=wrap;html=1;strokeColor=none;fontStyle=1" vertex="1" parent="1">
          <mxGeometry x="810" y="80" width="120" height="60" as="geometry" />
        </mxCell>
        <mxCell id="JZYg6jR8ObkeTNI4lyvI-10" value="&lt;font style=&quot;font-size: 18px;&quot;&gt;&lt;b style=&quot;&quot;&gt;Bronze Layer&lt;/b&gt;&lt;/font&gt;" style="rounded=1;whiteSpace=wrap;html=1;fillColor=#ffe6cc;strokeColor=#d79b00;" vertex="1" parent="1">
          <mxGeometry x="220" y="150" width="120" height="60" as="geometry" />
        </mxCell>
        <mxCell id="JZYg6jR8ObkeTNI4lyvI-11" value="" style="rounded=1;whiteSpace=wrap;html=1;fillColor=#ffe6cc;strokeColor=#d79b00;" vertex="1" parent="1">
          <mxGeometry x="220" y="210" width="120" height="470" as="geometry" />
        </mxCell>
        <mxCell id="JZYg6jR8ObkeTNI4lyvI-12" value="&lt;b&gt;&lt;font style=&quot;font-size: 18px;&quot;&gt;Silver Layer&lt;/font&gt;&lt;/b&gt;" style="rounded=1;whiteSpace=wrap;html=1;fillColor=#ffe6cc;strokeColor=#d79b00;shadow=0;" vertex="1" parent="1">
          <mxGeometry x="396.81" y="159" width="120" height="60" as="geometry" />
        </mxCell>
        <mxCell id="JZYg6jR8ObkeTNI4lyvI-13" value="" style="rounded=1;whiteSpace=wrap;html=1;fillColor=#ffe6cc;strokeColor=#d79b00;" vertex="1" parent="1">
          <mxGeometry x="400" y="220" width="120" height="460" as="geometry" />
        </mxCell>
        <mxCell id="JZYg6jR8ObkeTNI4lyvI-14" value="&lt;font style=&quot;font-size: 19px;&quot;&gt;Gold Layer&lt;/font&gt;" style="rounded=1;whiteSpace=wrap;html=1;fillColor=#ffe6cc;strokeColor=#d79b00;fontStyle=1" vertex="1" parent="1">
          <mxGeometry x="580" y="153" width="120" height="62" as="geometry" />
        </mxCell>
        <mxCell id="JZYg6jR8ObkeTNI4lyvI-16" value="&lt;font style=&quot;font-size: 16px;&quot;&gt;&lt;b&gt;CRM&lt;/b&gt;&lt;/font&gt;" style="image;aspect=fixed;html=1;points=[];align=center;fontSize=12;image=img/lib/azure2/general/Folder_Blank.svg;" vertex="1" parent="1">
          <mxGeometry x="39.19" y="215" width="61.61" height="50" as="geometry" />
        </mxCell>
        <mxCell id="JZYg6jR8ObkeTNI4lyvI-17" value="" style="verticalLabelPosition=bottom;html=1;verticalAlign=top;align=center;strokeColor=none;fillColor=#00BEF2;shape=mxgraph.azure.cloud_services_configuration_file;pointerEvents=1;" vertex="1" parent="1">
          <mxGeometry x="82.5" y="250" width="27.5" height="30" as="geometry" />
        </mxCell>
        <mxCell id="JZYg6jR8ObkeTNI4lyvI-18" value="&lt;b&gt;&lt;font style=&quot;font-size: 15px;&quot;&gt;ERP&lt;/font&gt;&lt;/b&gt;" style="image;aspect=fixed;html=1;points=[];align=center;fontSize=12;image=img/lib/azure2/general/Folder_Blank.svg;" vertex="1" parent="1">
          <mxGeometry x="39.19" y="410" width="61.61" height="50" as="geometry" />
        </mxCell>
        <mxCell id="JZYg6jR8ObkeTNI4lyvI-19" value="" style="verticalLabelPosition=bottom;html=1;verticalAlign=top;align=center;strokeColor=none;fillColor=#00BEF2;shape=mxgraph.azure.cloud_services_configuration_file;pointerEvents=1;" vertex="1" parent="1">
          <mxGeometry x="70" y="440" width="27.5" height="30" as="geometry" />
        </mxCell>
        <mxCell id="JZYg6jR8ObkeTNI4lyvI-20" value="" style="html=1;verticalLabelPosition=bottom;align=center;labelBackgroundColor=#ffffff;verticalAlign=top;strokeWidth=2;strokeColor=#0080F0;shadow=0;dashed=0;shape=mxgraph.ios7.icons.data;" vertex="1" parent="1">
          <mxGeometry x="250" y="220.9" width="60" height="79.1" as="geometry" />
        </mxCell>
        <mxCell id="JZYg6jR8ObkeTNI4lyvI-21" value="" style="rounded=1;whiteSpace=wrap;html=1;fillColor=#ffe6cc;strokeColor=#d79b00;" vertex="1" parent="1">
          <mxGeometry x="580" y="220" width="120" height="460" as="geometry" />
        </mxCell>
        <mxCell id="JZYg6jR8ObkeTNI4lyvI-22" value="" style="html=1;verticalLabelPosition=bottom;align=center;labelBackgroundColor=#ffffff;verticalAlign=top;strokeWidth=2;strokeColor=#0080F0;shadow=0;dashed=0;shape=mxgraph.ios7.icons.data;" vertex="1" parent="1">
          <mxGeometry x="430" y="220.9" width="60" height="79.1" as="geometry" />
        </mxCell>
        <mxCell id="JZYg6jR8ObkeTNI4lyvI-23" value="" style="html=1;verticalLabelPosition=bottom;align=center;labelBackgroundColor=#ffffff;verticalAlign=top;strokeWidth=2;strokeColor=#0080F0;shadow=0;dashed=0;shape=mxgraph.ios7.icons.data;" vertex="1" parent="1">
          <mxGeometry x="610" y="219.99999999999997" width="60" height="79.1" as="geometry" />
        </mxCell>
        <mxCell id="JZYg6jR8ObkeTNI4lyvI-26" value="&lt;span&gt;Raw Data&lt;/span&gt;" style="text;html=1;align=center;verticalAlign=middle;whiteSpace=wrap;rounded=0;fontStyle=0" vertex="1" parent="1">
          <mxGeometry x="250" y="305" width="60" height="30" as="geometry" />
        </mxCell>
        <mxCell id="JZYg6jR8ObkeTNI4lyvI-27" value="Cleaned ,Standardized dara" style="text;html=1;align=center;verticalAlign=middle;whiteSpace=wrap;rounded=0;" vertex="1" parent="1">
          <mxGeometry x="410" y="300" width="110" height="34.55" as="geometry" />
        </mxCell>
        <mxCell id="JZYg6jR8ObkeTNI4lyvI-28" value="Business-Ready Data" style="text;html=1;align=center;verticalAlign=middle;whiteSpace=wrap;rounded=0;fontStyle=0" vertex="1" parent="1">
          <mxGeometry x="593.4" y="302.27" width="100" height="30" as="geometry" />
        </mxCell>
        <mxCell id="JZYg6jR8ObkeTNI4lyvI-29" value="" style="shape=singleArrow;whiteSpace=wrap;html=1;strokeColor=#66B2FF;gradientColor=#FFFF00;" vertex="1" parent="1">
          <mxGeometry x="705" y="287.71999999999997" width="110" height="94.55" as="geometry" />
        </mxCell>
        <mxCell id="JZYg6jR8ObkeTNI4lyvI-30" value="" style="shape=singleArrow;whiteSpace=wrap;html=1;strokeColor=#3399FF;gradientColor=#FFFF00;" vertex="1" parent="1">
          <mxGeometry x="140" y="365" width="80" height="60" as="geometry" />
        </mxCell>
        <mxCell id="JZYg6jR8ObkeTNI4lyvI-35" value="" style="shape=singleArrow;whiteSpace=wrap;html=1;labelBackgroundColor=#66B2FF;strokeColor=#66B2FF;gradientColor=#FFFF00;" vertex="1" parent="1">
          <mxGeometry x="336.81" y="365" width="60" height="60" as="geometry" />
        </mxCell>
        <mxCell id="JZYg6jR8ObkeTNI4lyvI-38" value="" style="line;strokeWidth=2;html=1;" vertex="1" parent="1">
          <mxGeometry x="230" y="335" width="100" height="10" as="geometry" />
        </mxCell>
        <mxCell id="JZYg6jR8ObkeTNI4lyvI-39" value="" style="line;strokeWidth=2;html=1;" vertex="1" parent="1">
          <mxGeometry x="410" y="340" width="100" height="10" as="geometry" />
        </mxCell>
        <mxCell id="JZYg6jR8ObkeTNI4lyvI-40" value="" style="line;strokeWidth=2;html=1;" vertex="1" parent="1">
          <mxGeometry x="590" y="330" width="100" height="10" as="geometry" />
        </mxCell>
        <mxCell id="JZYg6jR8ObkeTNI4lyvI-43" value="&lt;div style=&quot;text-align: left;&quot;&gt;&lt;b style=&quot;background-color: transparent; color: light-dark(rgb(0, 0, 0), rgb(255, 255, 255));&quot;&gt;object type&lt;/b&gt;&lt;span style=&quot;background-color: transparent; color: light-dark(rgb(0, 0, 0), rgb(255, 255, 255));&quot;&gt; : table:&lt;/span&gt;&lt;/div&gt;&lt;div style=&quot;text-align: left;&quot;&gt;&lt;span style=&quot;background-color: transparent; color: light-dark(rgb(0, 0, 0), rgb(255, 255, 255));&quot;&gt;&lt;b&gt;&amp;nbsp;Load&lt;/b&gt;&amp;nbsp;&lt;/span&gt;&lt;/div&gt;&lt;div&gt;&lt;ul&gt;&lt;li&gt;Batch processing&lt;/li&gt;&lt;li&gt;Full Load&lt;/li&gt;&lt;li&gt;Truncate&amp;nbsp; and insert&lt;/li&gt;&lt;/ul&gt;No Transformation&lt;/div&gt;&lt;div&gt;&lt;b&gt;Data model : none&lt;/b&gt;;&lt;/div&gt;" style="text;html=1;align=center;verticalAlign=middle;whiteSpace=wrap;rounded=0;" vertex="1" parent="1">
          <mxGeometry x="221" y="350" width="116.81" height="280" as="geometry" />
        </mxCell>
        <mxCell id="JZYg6jR8ObkeTNI4lyvI-44" value="" style="shape=singleArrow;whiteSpace=wrap;html=1;strokeColor=#66B2FF;gradientColor=#FFFF00;" vertex="1" parent="1">
          <mxGeometry x="520" y="375.45" width="60" height="60" as="geometry" />
        </mxCell>
        <mxCell id="JZYg6jR8ObkeTNI4lyvI-46" value="&lt;div style=&quot;text-align: left;&quot;&gt;&lt;b style=&quot;background-color: transparent; color: light-dark(rgb(0, 0, 0), rgb(255, 255, 255));&quot;&gt;&amp;nbsp;object type&lt;/b&gt;&lt;span style=&quot;background-color: transparent; color: light-dark(rgb(0, 0, 0), rgb(255, 255, 255));&quot;&gt; : View:&lt;/span&gt;&lt;/div&gt;&lt;div&gt;&lt;div style=&quot;text-align: left;&quot;&gt;&lt;span style=&quot;background-color: transparent; color: light-dark(rgb(0, 0, 0), rgb(255, 255, 255));&quot;&gt;&lt;b&gt;&amp;nbsp;No load&lt;/b&gt;&amp;nbsp;&lt;/span&gt;&lt;/div&gt;&lt;div style=&quot;text-align: left;&quot;&gt;&lt;span style=&quot;background-color: transparent; color: light-dark(rgb(0, 0, 0), rgb(255, 255, 255));&quot;&gt;&lt;b&gt;Transformation&lt;/b&gt;&lt;/span&gt;&lt;/div&gt;&lt;div&gt;&lt;ul&gt;&lt;li&gt;&lt;span style=&quot;background-color: transparent; color: light-dark(rgb(0, 0, 0), rgb(255, 255, 255));&quot;&gt;Data integration&amp;nbsp;&lt;/span&gt;&lt;/li&gt;&lt;li&gt;Aggregations&lt;/li&gt;&lt;li&gt;Business logic&lt;/li&gt;&lt;/ul&gt;&lt;/div&gt;&lt;div&gt;&lt;b&gt;Data model :&lt;/b&gt;&lt;/div&gt;&lt;/div&gt;&lt;div&gt;&lt;ul&gt;&lt;li&gt;Star Schema&lt;/li&gt;&lt;li&gt;Flat Table&lt;/li&gt;&lt;li&gt;Aggregated Table&lt;/li&gt;&lt;/ul&gt;&lt;/div&gt;" style="text;html=1;align=center;verticalAlign=middle;whiteSpace=wrap;rounded=0;" vertex="1" parent="1">
          <mxGeometry x="580" y="345" width="116.81" height="320" as="geometry" />
        </mxCell>
        <mxCell id="JZYg6jR8ObkeTNI4lyvI-47" value="&lt;div style=&quot;text-align: left;&quot;&gt;&lt;b style=&quot;background-color: transparent; color: light-dark(rgb(0, 0, 0), rgb(255, 255, 255));&quot;&gt;&amp;nbsp;object type&lt;/b&gt;&lt;span style=&quot;background-color: transparent; color: light-dark(rgb(0, 0, 0), rgb(255, 255, 255));&quot;&gt; : table:&lt;/span&gt;&lt;/div&gt;&lt;div style=&quot;text-align: left;&quot;&gt;&lt;span style=&quot;background-color: transparent; color: light-dark(rgb(0, 0, 0), rgb(255, 255, 255));&quot;&gt;&lt;b&gt;&amp;nbsp;Load&lt;/b&gt;&amp;nbsp;&lt;/span&gt;&lt;/div&gt;&lt;div&gt;&lt;ul&gt;&lt;li&gt;Batch processing&lt;/li&gt;&lt;li&gt;Full Load&lt;/li&gt;&lt;li&gt;Truncate&amp;nbsp; and insert&lt;/li&gt;&lt;/ul&gt;&lt;/div&gt;&lt;div style=&quot;text-align: left;&quot;&gt;&lt;b&gt;Transformation&lt;/b&gt;&lt;/div&gt;&lt;div&gt;&lt;ul&gt;&lt;li&gt;Data Cleaning&lt;/li&gt;&lt;li&gt;Data Standardizarion&lt;/li&gt;&lt;li&gt;Data Normalization&amp;nbsp;&lt;/li&gt;&lt;li&gt;Derived Columns&lt;/li&gt;&lt;li&gt;Data Enrichment&lt;/li&gt;&lt;/ul&gt;&lt;/div&gt;&lt;div&gt;&lt;b&gt;Data model : none&lt;/b&gt;;&lt;/div&gt;" style="text;html=1;align=center;verticalAlign=middle;whiteSpace=wrap;rounded=0;" vertex="1" parent="1">
          <mxGeometry x="400" y="360" width="120" height="310" as="geometry" />
        </mxCell>
        <mxCell id="JZYg6jR8ObkeTNI4lyvI-48" value="&lt;b&gt;Object type&lt;/b&gt; : CSV Files&lt;div&gt;&lt;b&gt;Interface&lt;/b&gt; : Files in Folders&lt;/div&gt;" style="text;html=1;align=center;verticalAlign=middle;whiteSpace=wrap;rounded=0;" vertex="1" parent="1">
          <mxGeometry x="16.81" y="510" width="116.81" height="100" as="geometry" />
        </mxCell>
        <mxCell id="JZYg6jR8ObkeTNI4lyvI-51" value="" style="image;aspect=fixed;html=1;points=[];align=center;fontSize=12;image=img/lib/azure2/power_platform/PowerBI.svg;" vertex="1" parent="1">
          <mxGeometry x="844.5" y="155" width="51" height="68" as="geometry" />
        </mxCell>
        <mxCell id="JZYg6jR8ObkeTNI4lyvI-52" value="" style="sketch=0;pointerEvents=1;shadow=0;dashed=0;html=1;strokeColor=none;labelPosition=center;verticalLabelPosition=bottom;verticalAlign=top;align=center;fillColor=#505050;shape=mxgraph.mscae.oms.log_search" vertex="1" parent="1">
          <mxGeometry x="845" y="333" width="50" height="50" as="geometry" />
        </mxCell>
        <mxCell id="JZYg6jR8ObkeTNI4lyvI-53" value="" style="sketch=0;points=[[0,0,0],[0.25,0,0],[0.5,0,0],[0.75,0,0],[1,0,0],[0,1,0],[0.25,1,0],[0.5,1,0],[0.75,1,0],[1,1,0],[0,0.25,0],[0,0.5,0],[0,0.75,0],[1,0.25,0],[1,0.5,0],[1,0.75,0]];outlineConnect=0;fontColor=#232F3E;fillColor=#01A88D;strokeColor=#ffffff;dashed=0;verticalLabelPosition=bottom;verticalAlign=top;align=center;html=1;fontSize=12;fontStyle=0;aspect=fixed;shape=mxgraph.aws4.resourceIcon;resIcon=mxgraph.aws4.augmented_ai;" vertex="1" parent="1">
          <mxGeometry x="831" y="500" width="78" height="78" as="geometry" />
        </mxCell>
        <mxCell id="JZYg6jR8ObkeTNI4lyvI-54" value="BI &amp;amp; Reporting" style="text;html=1;align=center;verticalAlign=middle;whiteSpace=wrap;rounded=0;" vertex="1" parent="1">
          <mxGeometry x="835.5" y="244.55" width="60" height="30" as="geometry" />
        </mxCell>
        <mxCell id="JZYg6jR8ObkeTNI4lyvI-55" value="Ad-Hoc&lt;div&gt;SQL Queries&lt;/div&gt;" style="text;html=1;align=center;verticalAlign=middle;whiteSpace=wrap;rounded=0;" vertex="1" parent="1">
          <mxGeometry x="840" y="395" width="60" height="30" as="geometry" />
        </mxCell>
        <mxCell id="JZYg6jR8ObkeTNI4lyvI-58" value="Machine Learning" style="text;html=1;align=center;verticalAlign=middle;whiteSpace=wrap;rounded=0;" vertex="1" parent="1">
          <mxGeometry x="835.5" y="600" width="60" height="30" as="geometry" />
        </mxCell>
        <mxCell id="JZYg6jR8ObkeTNI4lyvI-59" value="" style="points=[];aspect=fixed;html=1;align=center;shadow=0;dashed=0;fillColor=#FF6A00;strokeColor=none;shape=mxgraph.alibaba_cloud.sqlserver;" vertex="1" parent="1">
          <mxGeometry x="210" y="50" width="28.85" height="40" as="geometry" />
        </mxCell>
        <mxCell id="JZYg6jR8ObkeTNI4lyvI-60" value="SQL-Server" style="text;html=1;align=center;verticalAlign=middle;whiteSpace=wrap;rounded=0;" vertex="1" parent="1">
          <mxGeometry x="238.85" y="55" width="60" height="30" as="geometry" />
        </mxCell>
      </root>
    </mxGraphModel>
  </diagram>
</mxfile>
